<svg xmlns="http://www.w3.org/2000/svg" xmlns:xlink="http://www.w3.org/1999/xlink" width="497" height="491" contentScriptType="application/ecmascript" contentStyleType="text/css" style="width:497px;height:491px;background:#fff" preserveAspectRatio="none" version="1.1" viewBox="0 0 497 491" zoomAndPan="magnify"><defs><filter id="f1ppvyx0erp0pr" width="300%" height="300%" x="-1" y="-1"><feGaussianBlur result="blurOut" stdDeviation="2"/><feColorMatrix in="blurOut" result="blurOut2" type="matrix" values="0 0 0 0 0 0 0 0 0 0 0 0 0 0 0 0 0 0 .4 0"/><feOffset dx="4" dy="4" in="blurOut2" result="blurOut3"/><feBlend in="SourceGraphic" in2="blurOut3" mode="normal"/></filter></defs><g><rect style="stroke:#a80036;stroke-width:1.5" width="135" height="46.297" x="132" y="7" fill="#FEFECE" filter="url(#f1ppvyx0erp0pr)"/><rect style="stroke:#a80036;stroke-width:1.5" width="15" height="10" x="247" y="12" fill="#FEFECE"/><rect style="stroke:#a80036;stroke-width:1.5" width="4" height="2" x="245" y="14" fill="#FEFECE"/><rect style="stroke:#a80036;stroke-width:1.5" width="4" height="2" x="245" y="18" fill="#FEFECE"/><text x="147" y="39.995" fill="#000" font-family="sans-serif" font-size="14" lengthAdjust="spacing" textLength="95">Kafka Brokers</text><rect style="stroke:#a80036;stroke-width:1.5" width="156" height="46.297" x="121.5" y="113" fill="#FEFECE" filter="url(#f1ppvyx0erp0pr)"/><rect style="stroke:#a80036;stroke-width:1.5" width="15" height="10" x="257.5" y="118" fill="#FEFECE"/><rect style="stroke:#a80036;stroke-width:1.5" width="4" height="2" x="255.5" y="120" fill="#FEFECE"/><rect style="stroke:#a80036;stroke-width:1.5" width="4" height="2" x="255.5" y="124" fill="#FEFECE"/><text x="136.5" y="145.995" fill="#000" font-family="sans-serif" font-size="14" lengthAdjust="spacing" textLength="116">Schema Registry</text><rect style="stroke:#a80036;stroke-width:1.5" width="79" height="46.297" x="7" y="113" fill="#FEFECE" filter="url(#f1ppvyx0erp0pr)"/><rect style="stroke:#a80036;stroke-width:1.5" width="15" height="10" x="66" y="118" fill="#FEFECE"/><rect style="stroke:#a80036;stroke-width:1.5" width="4" height="2" x="64" y="120" fill="#FEFECE"/><rect style="stroke:#a80036;stroke-width:1.5" width="4" height="2" x="64" y="124" fill="#FEFECE"/><text x="22" y="145.995" fill="#000" font-family="sans-serif" font-size="14" lengthAdjust="spacing" textLength="39">AKHQ</text><ellipse cx="333.5" cy="242" fill="#FEFECE" filter="url(#f1ppvyx0erp0pr)" rx="8" ry="8" style="stroke:#a80036;stroke-width:1.5"/><text x="290.5" y="271.995" fill="#000" font-family="sans-serif" font-size="14" lengthAdjust="spacing" textLength="86">JMX Exporter</text><rect style="stroke:#a80036;stroke-width:1.5" width="141" height="46.297" x="137" y="219" fill="#FEFECE" filter="url(#f1ppvyx0erp0pr)"/><rect style="stroke:#a80036;stroke-width:1.5" width="15" height="10" x="258" y="224" fill="#FEFECE"/><rect style="stroke:#a80036;stroke-width:1.5" width="4" height="2" x="256" y="226" fill="#FEFECE"/><rect style="stroke:#a80036;stroke-width:1.5" width="4" height="2" x="256" y="230" fill="#FEFECE"/><text x="152" y="251.995" fill="#000" font-family="sans-serif" font-size="14" lengthAdjust="spacing" textLength="101">Kafka-Connect</text><path fill="#FEFECE" d="M384,123.5 C384,113.5 434.5,113.5 434.5,113.5 C434.5,113.5 485,113.5 485,123.5 L485,148.7969 C485,158.7969 434.5,158.7969 434.5,158.7969 C434.5,158.7969 384,158.7969 384,148.7969 L384,123.5" filter="url(#f1ppvyx0erp0pr)" style="stroke:#000;stroke-width:1.5"/><path fill="none" d="M384,123.5 C384,133.5 434.5,133.5 434.5,133.5 C434.5,133.5 485,133.5 485,123.5" style="stroke:#000;stroke-width:1.5"/><text x="394" y="150.495" fill="#000" font-family="sans-serif" font-size="14" lengthAdjust="spacing" textLength="81">PostgreSQL</text><rect style="stroke:#a80036;stroke-width:1.5" width="97" height="46.297" x="386" y="219" fill="#FEFECE" filter="url(#f1ppvyx0erp0pr)"/><rect style="stroke:#a80036;stroke-width:1.5" width="15" height="10" x="463" y="224" fill="#FEFECE"/><rect style="stroke:#a80036;stroke-width:1.5" width="4" height="2" x="461" y="226" fill="#FEFECE"/><rect style="stroke:#a80036;stroke-width:1.5" width="4" height="2" x="461" y="230" fill="#FEFECE"/><text x="401" y="251.995" fill="#000" font-family="sans-serif" font-size="14" lengthAdjust="spacing" textLength="57">Adminer</text><rect style="stroke:#a80036;stroke-width:1.5" width="125" height="46.297" x="283" y="325" fill="#FEFECE" filter="url(#f1ppvyx0erp0pr)"/><rect style="stroke:#a80036;stroke-width:1.5" width="15" height="10" x="388" y="330" fill="#FEFECE"/><rect style="stroke:#a80036;stroke-width:1.5" width="4" height="2" x="386" y="332" fill="#FEFECE"/><rect style="stroke:#a80036;stroke-width:1.5" width="4" height="2" x="386" y="336" fill="#FEFECE"/><text x="298" y="357.995" fill="#000" font-family="sans-serif" font-size="14" lengthAdjust="spacing" textLength="85">Prometheus</text><rect style="stroke:#a80036;stroke-width:1.5" width="93" height="46.297" x="299" y="431" fill="#FEFECE" filter="url(#f1ppvyx0erp0pr)"/><rect style="stroke:#a80036;stroke-width:1.5" width="15" height="10" x="372" y="436" fill="#FEFECE"/><rect style="stroke:#a80036;stroke-width:1.5" width="4" height="2" x="370" y="438" fill="#FEFECE"/><rect style="stroke:#a80036;stroke-width:1.5" width="4" height="2" x="370" y="442" fill="#FEFECE"/><text x="314" y="463.995" fill="#000" font-family="sans-serif" font-size="14" lengthAdjust="spacing" textLength="53">Grafana</text><path fill="#FEFECE" d="M126.5,335 L242.5,335 C247.5,335 247.5,348.1484 247.5,348.1484 C247.5,348.1484 247.5,361.2969 242.5,361.2969 L126.5,361.2969 C121.5,361.2969 121.5,348.1484 121.5,348.1484 C121.5,348.1484 121.5,335 126.5,335" filter="url(#f1ppvyx0erp0pr)" style="stroke:#a80036;stroke-width:1.5"/><path fill="none" d="M242.5,335 C237.5,335 237.5,348.1484 237.5,348.1484 C237.5,361.2969 242.5,361.2969 242.5,361.2969" style="stroke:#a80036;stroke-width:1.5"/><text x="126.5" y="352.995" fill="#000" font-family="sans-serif" font-size="14" lengthAdjust="spacing" textLength="106">connect.orders</text><path id="jmx_exporter-to-kafka_connect" fill="none" d="M324.46,242 C310.78,242 297.1,242 283.42,242" style="stroke:#a80036;stroke-width:1"/><polygon fill="#A80036" points="278.38 242 287.391 245.974 283.38 241.986 287.368 237.974 278.38 242" style="stroke:#a80036;stroke-width:1"/><path id="kafka_brokers-backto-schema_registry" fill="none" d="M199.5,58.19 C199.5,75.26 199.5,96.99 199.5,112.98" style="stroke:#a80036;stroke-width:1"/><polygon fill="#A80036" points="199.5 53.06 195.5 62.06 199.5 58.06 203.5 62.06 199.5 53.06" style="stroke:#a80036;stroke-width:1"/><path id="postgresql-backto-adminer" fill="none" d="M434.5,163.68 C434.5,180.75 434.5,202.63 434.5,218.76" style="stroke:#a80036;stroke-width:1"/><polygon fill="#A80036" points="434.5 158.55 430.5 167.55 434.5 163.55 438.5 167.55 434.5 158.55" style="stroke:#a80036;stroke-width:1"/><path id="kafka_brokers-backto-kafka_connect" fill="none" d="M243.19,56.39 C262.75,70.35 283.79,89.61 294.5,113 C303.01,131.59 302.6,140.23 294.5,159 C283.81,183.77 261.54,204.53 242.21,218.96" style="stroke:#a80036;stroke-width:1"/><polygon fill="#A80036" points="238.78 53.32 243.877 61.747 242.882 56.179 248.451 55.184 238.78 53.32" style="stroke:#a80036;stroke-width:1"/><path id="schema_registry-backto-kafka_connect" fill="none" d="M201.59,164.19 C202.9,181.26 204.58,202.99 205.81,218.98" style="stroke:#a80036;stroke-width:1"/><polygon fill="#A80036" points="201.2 159.06 197.906 168.342 201.586 164.045 205.882 167.725 201.2 159.06" style="stroke:#a80036;stroke-width:1"/><path id="postgresql-backto-kafka_connect" fill="none" d="M382.88,160.65 C344.67,178.15 293,201.83 255.65,218.94" style="stroke:#a80036;stroke-width:1"/><polygon fill="#A80036" points="387.47 158.55 377.622 158.67 382.926 160.636 380.96 165.94 387.47 158.55" style="stroke:#a80036;stroke-width:1"/><path id="kafka_brokers-backto-akhq" fill="none" d="M162.7,56.01 C137.16,73.38 103.43,96.3 78.9,112.98" style="stroke:#a80036;stroke-width:1"/><polygon fill="#A80036" points="167.05 53.06 157.36 54.824 162.919 55.876 161.866 61.434 167.05 53.06" style="stroke:#a80036;stroke-width:1"/><path id="akhq-to-schema_registry" fill="none" d="M86.24,136 C96.16,136 106.09,136 116.01,136" style="stroke:#a80036;stroke-width:1"/><polygon fill="#A80036" points="121.19 136 112.19 132 116.19 136 112.19 140 121.19 136" style="stroke:#a80036;stroke-width:1"/><path id="akhq-to-kafka_connect" fill="none" d="M80.64,159.06 C106.58,175.81 142.25,198.85 169.16,216.24" style="stroke:#a80036;stroke-width:1"/><polygon fill="#A80036" points="173.41 218.98 168.002 210.749 169.204 216.276 163.676 217.478 173.41 218.98" style="stroke:#a80036;stroke-width:1"/><path id="kafka_connect-to-connect.orders" fill="none" d="M202.62,265.06 C198.37,284.29 192.28,311.82 188.36,329.56" style="stroke:#a80036;stroke-width:1"/><polygon fill="#A80036" points="187.21 334.73 193.05 326.799 188.284 329.847 185.237 325.081 187.21 334.73" style="stroke:#a80036;stroke-width:1"/><path id="jmx_exporter-backto-prometheus" fill="none" d="M335.06,256.51 C337.06,273.84 340.55,304.12 342.94,324.85" style="stroke:#a80036;stroke-width:1"/><polygon fill="#A80036" points="334.44 251.16 331.497 260.559 335.013 256.127 339.444 259.643 334.44 251.16" style="stroke:#a80036;stroke-width:1"/><path id="prometheus-backto-grafana" fill="none" d="M345.5,376.19 C345.5,393.26 345.5,414.99 345.5,430.98" style="stroke:#a80036;stroke-width:1"/><polygon fill="#A80036" points="345.5 371.06 341.5 380.06 345.5 376.06 349.5 380.06 345.5 371.06" style="stroke:#a80036;stroke-width:1"/></g></svg>